<svg width="237" height="72" viewBox="0 0 237 72" fill="none" xmlns="http://www.w3.org/2000/svg">
<path d="M92.8693 63V33.9091H103.778C106.013 33.9091 107.888 34.2973 109.403 35.0739C110.928 35.8504 112.079 36.9394 112.855 38.3409C113.641 39.733 114.034 41.357 114.034 43.2131C114.034 45.0786 113.636 46.6979 112.841 48.071C112.055 49.4347 110.895 50.4905 109.361 51.2386C107.827 51.9773 105.942 52.3466 103.707 52.3466H95.9375V47.9716H102.997C104.304 47.9716 105.374 47.7917 106.207 47.4318C107.041 47.0625 107.656 46.5275 108.054 45.8267C108.461 45.1165 108.665 44.2453 108.665 43.2131C108.665 42.1809 108.461 41.3002 108.054 40.571C107.647 39.8324 107.027 39.2737 106.193 38.8949C105.36 38.5066 104.285 38.3125 102.969 38.3125H98.1392V63H92.8693ZM107.898 49.8182L115.099 63H109.219L102.145 49.8182H107.898ZM128.004 63.4261C125.817 63.4261 123.928 62.9716 122.337 62.0625C120.755 61.1439 119.538 59.8466 118.686 58.1705C117.834 56.4848 117.408 54.5009 117.408 52.2188C117.408 49.9744 117.834 48.0047 118.686 46.3097C119.548 44.6051 120.75 43.2794 122.294 42.3324C123.838 41.3759 125.651 40.8977 127.734 40.8977C129.079 40.8977 130.348 41.1155 131.541 41.5511C132.744 41.9773 133.804 42.6402 134.723 43.5398C135.651 44.4394 136.38 45.5852 136.911 46.9773C137.441 48.3598 137.706 50.0076 137.706 51.9205V53.4972H119.822V50.0312H132.777C132.768 49.0464 132.554 48.1705 132.138 47.4034C131.721 46.6269 131.139 46.0161 130.391 45.571C129.652 45.1259 128.79 44.9034 127.805 44.9034C126.754 44.9034 125.831 45.1591 125.036 45.6705C124.24 46.1723 123.62 46.8352 123.175 47.6591C122.739 48.4735 122.517 49.3684 122.507 50.3438V53.3693C122.507 54.6383 122.739 55.7273 123.203 56.6364C123.667 57.536 124.316 58.2273 125.149 58.7102C125.982 59.1837 126.958 59.4205 128.075 59.4205C128.823 59.4205 129.5 59.3163 130.107 59.108C130.713 58.8902 131.238 58.5729 131.683 58.1562C132.128 57.7396 132.464 57.2235 132.692 56.608L137.493 57.1477C137.19 58.4167 136.612 59.5246 135.76 60.4716C134.917 61.4091 133.838 62.1383 132.521 62.6591C131.205 63.1705 129.699 63.4261 128.004 63.4261ZM148.335 63.4403C146.952 63.4403 145.707 63.1941 144.599 62.7017C143.5 62.1998 142.629 61.4612 141.985 60.4858C141.351 59.5104 141.033 58.3078 141.033 56.8778C141.033 55.6468 141.261 54.6288 141.715 53.8239C142.17 53.0189 142.79 52.375 143.576 51.892C144.362 51.4091 145.247 51.0445 146.232 50.7983C147.227 50.5426 148.254 50.358 149.315 50.2443C150.593 50.1117 151.63 49.9934 152.425 49.8892C153.221 49.7756 153.799 49.6051 154.158 49.3778C154.528 49.1411 154.712 48.7765 154.712 48.2841V48.1989C154.712 47.1288 154.395 46.3002 153.761 45.7131C153.126 45.1259 152.212 44.8324 151.019 44.8324C149.76 44.8324 148.761 45.107 148.022 45.6562C147.293 46.2055 146.8 46.8542 146.545 47.6023L141.744 46.9205C142.122 45.5947 142.747 44.4867 143.619 43.5966C144.49 42.697 145.555 42.0246 146.815 41.5795C148.074 41.125 149.466 40.8977 150.991 40.8977C152.042 40.8977 153.088 41.0208 154.13 41.267C155.172 41.5133 156.123 41.9205 156.985 42.4886C157.847 43.0473 158.538 43.8097 159.059 44.7756C159.589 45.7415 159.854 46.9489 159.854 48.3977V63H154.911V60.0028H154.741C154.428 60.6089 153.988 61.1771 153.42 61.7074C152.861 62.2282 152.156 62.6496 151.303 62.9716C150.46 63.2841 149.471 63.4403 148.335 63.4403ZM149.67 59.6619C150.702 59.6619 151.597 59.4583 152.354 59.0511C153.112 58.6345 153.694 58.0852 154.102 57.4034C154.518 56.7216 154.727 55.9782 154.727 55.1733V52.6023C154.566 52.7348 154.291 52.858 153.903 52.9716C153.524 53.0852 153.098 53.1847 152.624 53.2699C152.151 53.3551 151.682 53.4309 151.218 53.4972C150.754 53.5634 150.352 53.6203 150.011 53.6676C149.244 53.7718 148.557 53.9422 147.951 54.179C147.345 54.4157 146.867 54.7472 146.516 55.1733C146.166 55.59 145.991 56.1297 145.991 56.7926C145.991 57.7396 146.336 58.4545 147.028 58.9375C147.719 59.4205 148.6 59.6619 149.67 59.6619ZM173.121 63.3835C171.407 63.3835 169.873 62.9432 168.519 62.0625C167.165 61.1818 166.095 59.9034 165.309 58.2273C164.523 56.5511 164.13 54.5152 164.13 52.1193C164.13 49.6951 164.528 47.6496 165.323 45.983C166.128 44.3068 167.212 43.0426 168.576 42.1903C169.94 41.3286 171.46 40.8977 173.136 40.8977C174.414 40.8977 175.465 41.1155 176.289 41.5511C177.113 41.9773 177.766 42.4934 178.249 43.0994C178.732 43.696 179.106 44.2595 179.371 44.7898H179.585V33.9091H184.741V63H179.684V59.5625H179.371C179.106 60.0928 178.723 60.6562 178.221 61.2528C177.719 61.84 177.056 62.3419 176.232 62.7585C175.408 63.1752 174.371 63.3835 173.121 63.3835ZM174.556 59.1648C175.645 59.1648 176.573 58.8712 177.34 58.2841C178.107 57.6875 178.69 56.8589 179.087 55.7983C179.485 54.7377 179.684 53.5019 179.684 52.0909C179.684 50.6799 179.485 49.4536 179.087 48.4119C178.699 47.3703 178.121 46.5606 177.354 45.983C176.597 45.4053 175.664 45.1165 174.556 45.1165C173.41 45.1165 172.454 45.4148 171.687 46.0114C170.92 46.608 170.342 47.4318 169.954 48.483C169.566 49.5341 169.371 50.7367 169.371 52.0909C169.371 53.4545 169.566 54.6714 169.954 55.7415C170.352 56.8021 170.934 57.6402 171.701 58.2557C172.478 58.8617 173.429 59.1648 174.556 59.1648ZM190.22 63V41.1818H195.362V63H190.22ZM192.805 38.0852C191.991 38.0852 191.29 37.8153 190.703 37.2756C190.116 36.7263 189.822 36.0682 189.822 35.3011C189.822 34.5246 190.116 33.8665 190.703 33.3267C191.29 32.7775 191.991 32.5028 192.805 32.5028C193.629 32.5028 194.33 32.7775 194.908 33.3267C195.495 33.8665 195.788 34.5246 195.788 35.3011C195.788 36.0682 195.495 36.7263 194.908 37.2756C194.33 37.8153 193.629 38.0852 192.805 38.0852ZM211.701 41.1818V45.1591H198.803V41.1818H211.701ZM202.028 63V39.1222C202.028 37.6544 202.331 36.4328 202.937 35.4574C203.552 34.482 204.376 33.7528 205.408 33.2699C206.441 32.7869 207.586 32.5455 208.846 32.5455C209.736 32.5455 210.527 32.6165 211.218 32.7585C211.909 32.9006 212.421 33.0284 212.752 33.142L211.729 37.1193C211.512 37.053 211.237 36.9867 210.906 36.9205C210.574 36.8447 210.205 36.8068 209.798 36.8068C208.841 36.8068 208.164 37.0388 207.766 37.5028C207.378 37.9574 207.184 38.6108 207.184 39.4631V63H202.028ZM218.924 71.1818C218.223 71.1818 217.575 71.125 216.978 71.0114C216.391 70.9072 215.922 70.7841 215.572 70.642L216.765 66.6364C217.513 66.8542 218.181 66.9583 218.768 66.9489C219.355 66.9394 219.871 66.7547 220.316 66.3949C220.771 66.0445 221.154 65.4574 221.467 64.6335L221.907 63.4545L213.995 41.1818H219.45L224.478 57.6591H224.705L229.748 41.1818H235.217L226.481 65.642C226.074 66.7973 225.534 67.7869 224.862 68.6108C224.189 69.4441 223.365 70.0786 222.39 70.5142C221.424 70.9593 220.269 71.1818 218.924 71.1818Z" fill="white"/>
<path d="M32.1353 19.6045C31.9775 19.6045 31.8496 19.7325 31.8496 19.8903V25.2702C31.8496 25.428 31.9775 25.5559 32.1353 25.5559H37.4921C37.6499 25.5559 37.7778 25.428 37.7778 25.2702V19.8903C37.7778 19.7325 37.6499 19.6045 37.4921 19.6045H32.1353Z" fill="#D9D9D9"/>
<path d="M45.619 10.7358C45.4613 10.7358 45.3333 10.8637 45.3333 11.0215V15.2345C45.3333 15.3923 45.4613 15.5203 45.619 15.5203H50.2784C50.4362 15.5203 50.5641 15.3923 50.5641 15.2345V11.0215C50.5641 10.8637 50.4362 10.7358 50.2784 10.7358H45.619Z" fill="#D9D9D9"/>
<path d="M39.9233 0C39.7655 0 39.6376 0.127919 39.6376 0.285714V4.14865C39.6376 4.30644 39.7655 4.43436 39.9233 4.43436H43.769C43.9268 4.43436 44.0547 4.30644 44.0547 4.14865V0.285714C44.0547 0.127919 43.9268 0 43.769 0H39.9233Z" fill="#D9D9D9"/>
<path d="M32.547 8.75203C32.6025 8.898 32.5866 10.3056 32.5572 11.2562C32.5522 11.4182 32.6818 11.5527 32.8439 11.5527H35.1673C35.3251 11.5527 35.453 11.4248 35.453 11.267V9.03774C35.453 8.87994 35.3251 8.75203 35.1673 8.75203H32.547Z" fill="#D9D9D9"/>
<path d="M23.7661 1.75041C23.6083 1.75041 23.4803 1.87832 23.4803 2.03612V5.78236C23.4803 5.94015 23.6083 6.06807 23.7661 6.06807H27.263C27.4208 6.06807 27.5487 5.94015 27.5487 5.78236V2.03612C27.5487 1.87832 27.4208 1.75041 27.263 1.75041H23.7661Z" fill="#D9D9D9"/>
<path d="M20.8601 12.0195C20.7023 12.0195 20.5744 12.1474 20.5744 12.3052V16.7516C20.5744 16.9094 20.7023 17.0373 20.8601 17.0373H25.0545C25.2122 17.0373 25.3402 16.9094 25.3402 16.7516V12.3052C25.3402 12.1474 25.2122 12.0195 25.0545 12.0195H20.8601Z" fill="#D9D9D9"/>
<path d="M28.4786 68.6159C24.294 61.801 7.74929 64.8428 0 67.2156C0.619943 67.5267 1.79009 68.5225 1.51111 70.0162C7.40057 68.0324 21.0393 65.6519 28.4786 72C31.7721 69.6661 42.3111 66.0953 58.1197 70.483C58.1971 69.6272 58.8403 67.7757 60.7932 67.2156C43.4038 61.2409 32.0046 65.6596 28.4786 68.6159Z" fill="#C2C2C2"/>
<path d="M7.43932 32.2075L0 67.2156C7.74929 64.8428 24.294 61.801 28.4786 68.6159C32.0046 65.6596 43.4038 61.2409 60.7932 67.2156L68 34.8914C67.8063 34.6191 67.0701 34.0746 65.6752 34.0746L58.9333 62.8979C54.4387 59.825 42.5203 55.3361 30.8034 61.9644C33.8644 57.9579 43.4503 51.4619 57.306 57.53L63.4667 28.3566C56.62 26.091 41.4512 23.9316 34.8906 33.127C34.7705 33.2952 34.5141 33.2984 34.3831 33.1386C32.2988 30.5963 24.4924 27.3034 7.43932 32.2075Z" fill="#EDEDED"/>
</svg>
